<?xml version="1.0" encoding="UTF-8" standalone="no"?>
<svg
   xmlns:dc="http://purl.org/dc/elements/1.1/"
   xmlns:cc="http://creativecommons.org/ns#"
   xmlns:rdf="http://www.w3.org/1999/02/22-rdf-syntax-ns#"
   xmlns:svg="http://www.w3.org/2000/svg"
   xmlns="http://www.w3.org/2000/svg"
   xmlns:xlink="http://www.w3.org/1999/xlink"
   xmlns:sodipodi="http://sodipodi.sourceforge.net/DTD/sodipodi-0.dtd"
   xmlns:inkscape="http://www.inkscape.org/namespaces/inkscape"
   width="128"
   height="128"
   viewBox="0 0 128 128"
   version="1.1"
   id="svg60"
   sodipodi:docname="icon.svg"
   inkscape:version="1.0.1 (3bc2e813f5, 2020-09-07)">
  <metadata
     id="metadata64">
    <rdf:RDF>
      <cc:Work
         rdf:about="">
        <dc:format>image/svg+xml</dc:format>
        <dc:type
           rdf:resource="http://purl.org/dc/dcmitype/StillImage" />
        <dc:title />
      </cc:Work>
    </rdf:RDF>
  </metadata>
  <sodipodi:namedview
     pagecolor="#ffffff"
     bordercolor="#666666"
     borderopacity="1"
     objecttolerance="10"
     gridtolerance="10"
     guidetolerance="10"
     inkscape:pageopacity="0"
     inkscape:pageshadow="2"
     inkscape:window-width="1920"
     inkscape:window-height="1017"
     id="namedview62"
     showgrid="false"
     showguides="false"
     inkscape:zoom="2.8284271"
     inkscape:cx="41.887849"
     inkscape:cy="89.77033"
     inkscape:window-x="-8"
     inkscape:window-y="-8"
     inkscape:window-maximized="1"
     inkscape:current-layer="svg60"
     inkscape:document-rotation="0" />
  <defs
     id="defs40">
    <inkscape:path-effect
       effect="powermask"
       id="path-effect1157"
       is_visible="true"
       lpeversion="1"
       uri="#mask-powermask-path-effect1157"
       invert="false"
       hide_mask="false"
       background="true"
       background_color="#ffffffff" />
    <circle
       id="b"
       cx="64"
       cy="64"
       r="56" />
    <filter
       x="-7.1%"
       y="-5.4%"
       width="114.3%"
       height="114.3%"
       filterUnits="objectBoundingBox"
       id="a">
      <feMorphology
         radius="1"
         operator="dilate"
         in="SourceAlpha"
         result="shadowSpreadOuter1"
         id="feMorphology3" />
      <feOffset
         dy="2"
         in="shadowSpreadOuter1"
         result="shadowOffsetOuter1"
         id="feOffset5" />
      <feGaussianBlur
         stdDeviation="2"
         in="shadowOffsetOuter1"
         result="shadowBlurOuter1"
         id="feGaussianBlur7" />
      <feComposite
         in="shadowBlurOuter1"
         in2="SourceAlpha"
         operator="out"
         result="shadowBlurOuter1"
         id="feComposite9" />
      <feColorMatrix
         values="0 0 0 0 0 0 0 0 0 0 0 0 0 0 0 0 0 0 0.240942029 0"
         in="shadowBlurOuter1"
         id="feColorMatrix11" />
    </filter>
    <linearGradient
       x1="50%"
       y1="0%"
       x2="50%"
       y2="100%"
       id="c">
      <stop
         stop-color="#FEFEFE"
         offset="0%"
         id="stop14" />
      <stop
         stop-color="#E0E0E0"
         offset="100%"
         id="stop16" />
    </linearGradient>
    <circle
       id="d"
       cx="64"
       cy="63"
       r="52" />
    <linearGradient
       x1="50%"
       y1="100%"
       x2="50%"
       y2="0%"
       id="g">
      <stop
         stop-color="#492779"
         offset="0%"
         id="stop20"
         style="stop-color:#191919;stop-opacity:1" />
      <stop
         stop-color="#892793"
         offset="100%"
         id="stop22"
         style="stop-color:#007acc;stop-opacity:1" />
    </linearGradient>
    <path
       d="M12 64.034c0 23.025 14.885 42.472 35.555 49.367 2.6.456 3.575-1.105 3.575-2.47 0-1.237-.065-5.334-.065-9.692C38 103.644 34.62 98.05 33.58 95.124c-.585-1.496-3.12-6.114-5.33-7.35-1.82-.976-4.42-3.382-.065-3.447 4.095-.065 7.02 3.772 7.995 5.333 4.68 7.87 12.155 5.66 15.145 4.293.455-3.382 1.82-5.66 3.315-6.96-11.57-1.3-23.66-5.788-23.66-25.69 0-5.66 2.015-10.343 5.33-13.985-.52-1.3-2.34-6.634.52-13.79 0 0 4.355-1.365 14.3 5.334 4.16-1.17 8.58-1.756 13-1.756s8.84.586 13 1.756c9.945-6.764 14.3-5.333 14.3-5.333 2.86 7.154 1.04 12.487.52 13.788 3.315 3.642 5.33 8.26 5.33 13.984 0 19.968-12.155 24.39-23.725 25.692 1.885 1.626 3.51 4.748 3.51 9.626 0 6.96-.065 12.553-.065 14.31 0 1.365.975 2.99 3.575 2.47C101.115 106.507 116 86.995 116 64.035 116 35.284 92.73 12 64 12S12 35.285 12 64.034z"
       id="e" />
    <filter
       x="-.5%"
       y="-.5%"
       width="101%"
       height="102%"
       filterUnits="objectBoundingBox"
       id="f">
      <feOffset
         dy="1"
         in="SourceAlpha"
         result="shadowOffsetOuter1"
         id="feOffset26" />
      <feColorMatrix
         values="0 0 0 0 1 0 0 0 0 1 0 0 0 0 1 0 0 0 0.529296875 0"
         in="shadowOffsetOuter1"
         id="feColorMatrix28" />
    </filter>
    <filter
       x="-1%"
       y="-1%"
       width="101.9%"
       height="103%"
       filterUnits="objectBoundingBox"
       id="h">
      <feGaussianBlur
         stdDeviation="1"
         in="SourceAlpha"
         result="shadowBlurInner1"
         id="feGaussianBlur31" />
      <feOffset
         in="shadowBlurInner1"
         result="shadowOffsetInner1"
         id="feOffset33" />
      <feComposite
         in="shadowOffsetInner1"
         in2="SourceAlpha"
         operator="arithmetic"
         k2="-1"
         k3="1"
         result="shadowInnerInner1"
         id="feComposite35" />
      <feColorMatrix
         values="0 0 0 0 0.258823529 0 0 0 0 0.137254902 0 0 0 0 0.431372549 0 0 0 0.703549592 0"
         in="shadowInnerInner1"
         id="feColorMatrix37" />
    </filter>
    <linearGradient
       inkscape:collect="always"
       xlink:href="#g"
       id="linearGradient939"
       gradientUnits="userSpaceOnUse"
       x1="64.000031"
       y1="114.94543"
       x2="64.000031"
       y2="14.213487"
       gradientTransform="matrix(1.2536606,0,0,1.2536606,-16.234279,-16.234279)" />
    <mask
       maskUnits="userSpaceOnUse"
       id="mask-powermask-path-effect1157">
      <path
         id="mask-powermask-path-effect1157_box"
         style="fill:#ffffff;fill-opacity:1"
         d="M 11.949001,11.949001 H 116.051 V 116.051 H 11.949001 Z" />
      <g
         id="g1155"
         style="fill:#000000;fill-opacity:1;fill-rule:nonzero;stroke:none">
        <g
           id="g1141"
           style="opacity:1;fill:#000000;fill-opacity:1;fill-rule:nonzero;stroke:none">
          <path
             style="color:#000000;font-style:normal;font-variant:normal;font-weight:normal;font-stretch:normal;font-size:medium;line-height:normal;font-family:sans-serif;font-variant-ligatures:normal;font-variant-position:normal;font-variant-caps:normal;font-variant-numeric:normal;font-variant-alternates:normal;font-variant-east-asian:normal;font-feature-settings:normal;font-variation-settings:normal;text-indent:0;text-align:start;text-decoration:none;text-decoration-line:none;text-decoration-style:solid;text-decoration-color:#000000;letter-spacing:normal;word-spacing:normal;text-transform:none;writing-mode:lr-tb;direction:ltr;text-orientation:mixed;dominant-baseline:auto;baseline-shift:baseline;text-anchor:start;white-space:normal;shape-padding:0;shape-margin:0;inline-size:0;clip-rule:nonzero;display:inline;overflow:visible;visibility:visible;isolation:auto;mix-blend-mode:normal;color-interpolation:sRGB;color-interpolation-filters:linearRGB;solid-color:#000000;solid-opacity:1;vector-effect:none;fill:#000000;fill-opacity:1;fill-rule:nonzero;stroke:none;stroke-width:2;stroke-linecap:butt;stroke-linejoin:round;stroke-miterlimit:4;stroke-dasharray:none;stroke-dashoffset:0;stroke-opacity:1;color-rendering:auto;image-rendering:auto;shape-rendering:auto;text-rendering:auto;enable-background:accumulate;stop-color:#000000;stop-opacity:1"
             d="m 63.999871,56.541016 c 3.399577,0 6.136527,2.736947 6.107717,6.107714 v 22.414158 l 32.584072,20.368652 0.0289,8.15322 -32.584074,-10.22754 V 125.829 l 8.153221,6.0789 -0.02893,6.13652 -14.232128,-4.09101 -14.289743,4.09101 -0.05761,-6.16533 8.26846,-6.13652 v -22.29892 l -32.670508,10.14111 0.02893,-8.15322 32.584079,-20.368652 V 62.64873 C 57.834677,59.364393 60.715666,56.483396 64,56.541016 Z"
             id="path1137" />
          <path
             style="color:#000000;font-style:normal;font-variant:normal;font-weight:normal;font-stretch:normal;font-size:medium;line-height:normal;font-family:sans-serif;font-variant-ligatures:normal;font-variant-position:normal;font-variant-caps:normal;font-variant-numeric:normal;font-variant-alternates:normal;font-variant-east-asian:normal;font-feature-settings:normal;font-variation-settings:normal;text-indent:0;text-align:start;text-decoration:none;text-decoration-line:none;text-decoration-style:solid;text-decoration-color:#000000;letter-spacing:normal;word-spacing:normal;text-transform:none;writing-mode:lr-tb;direction:ltr;text-orientation:mixed;dominant-baseline:auto;baseline-shift:baseline;text-anchor:start;white-space:normal;shape-padding:0;shape-margin:0;inline-size:0;clip-rule:nonzero;display:inline;overflow:visible;visibility:visible;isolation:auto;mix-blend-mode:normal;color-interpolation:sRGB;color-interpolation-filters:linearRGB;solid-color:#000000;solid-opacity:1;vector-effect:none;fill:#000000;fill-opacity:1;fill-rule:nonzero;stroke:none;stroke-width:2;stroke-linecap:butt;stroke-linejoin:round;stroke-miterlimit:4;stroke-dasharray:none;stroke-dashoffset:0;stroke-opacity:1;color-rendering:auto;image-rendering:auto;shape-rendering:auto;text-rendering:auto;enable-background:accumulate;stop-color:#000000;stop-opacity:1"
             d="m 64,55.541016 a 1.0001,1.0001 0 0 0 -0.361328,0.07422 c -3.705284,0.155304 -6.811767,3.304834 -6.746094,7.050782 V 84.507812 L 24.777344,104.58398 a 1.0001,1.0001 0 0 0 -0.46875,0.84375 l -0.0293,8.1543 a 1.0001,1.0001 0 0 0 1.296875,0.95703 l 31.373047,-9.73828 v 20.43945 l -7.863281,5.83594 a 1.0001,1.0001 0 0 0 -0.404297,0.8125 l 0.05664,6.16602 a 1.0001,1.0001 0 0 0 1.275391,0.95117 l 14.013672,-4.01172 13.957031,4.01172 a 1.0001,1.0001 0 0 0 1.277344,-0.95703 l 0.02734,-6.13672 a 1.0001,1.0001 0 0 0 -0.402343,-0.80664 l -7.75,-5.77735 v -20.60937 l 31.285157,9.82031 a 1.0001,1.0001 0 0 0 1.29882,-0.95703 l -0.0293,-8.1543 a 1.0001,1.0001 0 0 0 -0.46875,-0.84375 L 71.107422,84.507812 V 62.658203 c 0.03237,-3.787097 -2.983571,-6.840933 -6.740234,-7.042969 a 1.0001,1.0001 0 0 0 -0.34961,-0.07422 c -0.0034,-6.1e-5 -0.0063,0.002 -0.0098,0.002 -0.0028,-3e-6 -0.005,-0.002 -0.0078,-0.002 z m -0.01758,1.998046 A 1.0001,1.0001 0 0 0 64,57.541016 c 2.862854,0 5.131566,2.27472 5.107422,5.099609 a 1.0001,1.0001 0 0 0 0,0.0078 V 85.0625 a 1.0001,1.0001 0 0 0 0.470703,0.847656 l 32.115235,20.076174 0.0215,6.23437 -31.279293,-9.81836 a 1.0001,1.0001 0 0 0 -1.298828,0.95508 v 22.4707 a 1.0001,1.0001 0 0 0 0.402343,0.80274 l 7.748047,5.77734 -0.01953,4.31055 -12.96289,-3.72656 a 1.0001,1.0001 0 0 0 -0.550782,0 l -13.027344,3.73047 -0.04102,-4.34375 7.859375,-5.83399 a 1.0001,1.0001 0 0 0 0.404297,-0.80273 v -22.29883 a 1.0001,1.0001 0 0 0 -1.296875,-0.95508 l -31.367188,9.73633 0.02148,-6.23828 32.115234,-20.076174 A 1.0001,1.0001 0 0 0 58.892578,85.0625 V 62.648438 a 1.0001,1.0001 0 0 0 0,-0.01758 c -0.04715,-2.689565 2.400291,-5.137029 5.089844,-5.089843 z"
             id="path1139" />
        </g>
        <g
           id="g1147"
           style="opacity:1;fill:#000000;fill-opacity:1;fill-rule:nonzero;stroke:none">
          <path
             style="color:#000000;font-style:normal;font-variant:normal;font-weight:normal;font-stretch:normal;font-size:medium;line-height:normal;font-family:sans-serif;font-variant-ligatures:normal;font-variant-position:normal;font-variant-caps:normal;font-variant-numeric:normal;font-variant-alternates:normal;font-variant-east-asian:normal;font-feature-settings:normal;font-variation-settings:normal;text-indent:0;text-align:start;text-decoration:none;text-decoration-line:none;text-decoration-style:solid;text-decoration-color:#000000;letter-spacing:normal;word-spacing:normal;text-transform:none;writing-mode:lr-tb;direction:ltr;text-orientation:mixed;dominant-baseline:auto;baseline-shift:baseline;text-anchor:start;white-space:normal;shape-padding:0;shape-margin:0;inline-size:0;clip-rule:nonzero;display:inline;overflow:visible;visibility:visible;isolation:auto;mix-blend-mode:normal;color-interpolation:sRGB;color-interpolation-filters:linearRGB;solid-color:#000000;solid-opacity:1;vector-effect:none;fill:#000000;fill-opacity:1;fill-rule:nonzero;stroke:none;stroke-width:3;stroke-linecap:butt;stroke-linejoin:round;stroke-miterlimit:4;stroke-dasharray:none;stroke-dashoffset:0;stroke-opacity:1;color-rendering:auto;image-rendering:auto;shape-rendering:auto;text-rendering:auto;enable-background:accumulate;stop-color:#000000;stop-opacity:1"
             d="M 46.137136,77.557005 29.912552,61.332422 46.137136,45.107839 l -4.937917,-4.937917 -21.1625,21.1625 21.1625,21.1625 z"
             id="path1143" />
          <path
             style="color:#000000;font-style:normal;font-variant:normal;font-weight:normal;font-stretch:normal;font-size:medium;line-height:normal;font-family:sans-serif;font-variant-ligatures:normal;font-variant-position:normal;font-variant-caps:normal;font-variant-numeric:normal;font-variant-alternates:normal;font-variant-east-asian:normal;font-feature-settings:normal;font-variation-settings:normal;text-indent:0;text-align:start;text-decoration:none;text-decoration-line:none;text-decoration-style:solid;text-decoration-color:#000000;letter-spacing:normal;word-spacing:normal;text-transform:none;writing-mode:lr-tb;direction:ltr;text-orientation:mixed;dominant-baseline:auto;baseline-shift:baseline;text-anchor:start;white-space:normal;shape-padding:0;shape-margin:0;inline-size:0;clip-rule:nonzero;display:inline;overflow:visible;visibility:visible;isolation:auto;mix-blend-mode:normal;color-interpolation:sRGB;color-interpolation-filters:linearRGB;solid-color:#000000;solid-opacity:1;vector-effect:none;fill:#000000;fill-opacity:1;fill-rule:nonzero;stroke:none;stroke-width:3;stroke-linecap:butt;stroke-linejoin:round;stroke-miterlimit:4;stroke-dasharray:none;stroke-dashoffset:0;stroke-opacity:1;color-rendering:auto;image-rendering:auto;shape-rendering:auto;text-rendering:auto;enable-background:accumulate;stop-color:#000000;stop-opacity:1"
             d="m 41.244141,38.669922 a 1.50015,1.50015 0 0 0 -1.105469,0.439453 l -21.16211,21.162109 a 1.50015,1.50015 0 0 0 0,2.121094 l 21.16211,21.16211 a 1.50015,1.50015 0 0 0 2.121094,0 l 4.9375,-4.9375 a 1.50015,1.50015 0 0 0 0,-2.121094 L 32.033203,61.332031 47.197266,46.167969 a 1.50015,1.50015 0 0 0 0,-2.121094 l -4.9375,-4.9375 a 1.50015,1.50015 0 0 0 -1.015625,-0.439453 z m -0.04492,3.621094 2.816406,2.816406 -15.164063,15.164062 a 1.50015,1.50015 0 0 0 0,2.121094 L 44.015625,77.556641 41.199219,80.373047 22.158203,61.332031 Z"
             id="path1145" />
        </g>
        <g
           id="g1153"
           style="opacity:1;fill:#000000;fill-opacity:1;fill-rule:nonzero;stroke:none">
          <path
             style="color:#000000;font-style:normal;font-variant:normal;font-weight:normal;font-stretch:normal;font-size:medium;line-height:normal;font-family:sans-serif;font-variant-ligatures:normal;font-variant-position:normal;font-variant-caps:normal;font-variant-numeric:normal;font-variant-alternates:normal;font-variant-east-asian:normal;font-feature-settings:normal;font-variation-settings:normal;text-indent:0;text-align:start;text-decoration:none;text-decoration-line:none;text-decoration-style:solid;text-decoration-color:#000000;letter-spacing:normal;word-spacing:normal;text-transform:none;writing-mode:lr-tb;direction:ltr;text-orientation:mixed;dominant-baseline:auto;baseline-shift:baseline;text-anchor:start;white-space:normal;shape-padding:0;shape-margin:0;inline-size:0;clip-rule:nonzero;display:inline;overflow:visible;visibility:visible;isolation:auto;mix-blend-mode:normal;color-interpolation:sRGB;color-interpolation-filters:linearRGB;solid-color:#000000;solid-opacity:1;vector-effect:none;fill:#000000;fill-opacity:1;fill-rule:nonzero;stroke:none;stroke-width:3;stroke-linecap:butt;stroke-linejoin:round;stroke-miterlimit:4;stroke-dasharray:none;stroke-dashoffset:0;stroke-opacity:1;color-rendering:auto;image-rendering:auto;shape-rendering:auto;text-rendering:auto;enable-background:accumulate;stop-color:#000000;stop-opacity:1"
             d="M 81.835528,45.10982 98.060111,61.334403 81.835527,77.558986 86.773444,82.496902 107.93594,61.334402 86.773446,40.171903 Z"
             id="path1149" />
          <path
             style="color:#000000;font-style:normal;font-variant:normal;font-weight:normal;font-stretch:normal;font-size:medium;line-height:normal;font-family:sans-serif;font-variant-ligatures:normal;font-variant-position:normal;font-variant-caps:normal;font-variant-numeric:normal;font-variant-alternates:normal;font-variant-east-asian:normal;font-feature-settings:normal;font-variation-settings:normal;text-indent:0;text-align:start;text-decoration:none;text-decoration-line:none;text-decoration-style:solid;text-decoration-color:#000000;letter-spacing:normal;word-spacing:normal;text-transform:none;writing-mode:lr-tb;direction:ltr;text-orientation:mixed;dominant-baseline:auto;baseline-shift:baseline;text-anchor:start;white-space:normal;shape-padding:0;shape-margin:0;inline-size:0;clip-rule:nonzero;display:inline;overflow:visible;visibility:visible;isolation:auto;mix-blend-mode:normal;color-interpolation:sRGB;color-interpolation-filters:linearRGB;solid-color:#000000;solid-opacity:1;vector-effect:none;fill:#000000;fill-opacity:1;fill-rule:nonzero;stroke:none;stroke-width:3;stroke-linecap:butt;stroke-linejoin:round;stroke-miterlimit:4;stroke-dasharray:none;stroke-dashoffset:0;stroke-opacity:1;color-rendering:auto;image-rendering:auto;shape-rendering:auto;text-rendering:auto;enable-background:accumulate;stop-color:#000000;stop-opacity:1"
             d="m 86.818359,38.671875 a 1.50015,1.50015 0 0 0 -1.105468,0.439453 l -4.9375,4.9375 a 1.50015,1.50015 0 0 0 0,2.121094 L 95.939453,61.333984 80.775391,76.498047 a 1.50015,1.50015 0 0 0 0,2.121094 l 4.9375,4.9375 a 1.50015,1.50015 0 0 0 2.121093,0 l 21.162106,-21.16211 a 1.50015,1.50015 0 0 0 0,-2.121093 L 87.833984,39.111328 A 1.50015,1.50015 0 0 0 86.818359,38.671875 Z M 86.773438,42.292969 105.81445,61.333984 86.773438,80.375 83.957031,77.558594 99.121094,62.394531 a 1.50015,1.50015 0 0 0 0,-2.121093 L 83.957031,45.109375 Z"
             id="path1151" />
        </g>
      </g>
    </mask>
    <filter
       id="mask-powermask-path-effect1157_inverse"
       inkscape:label="filtermask-powermask-path-effect1157"
       style="color-interpolation-filters:sRGB"
       height="100"
       width="100"
       x="-50"
       y="-50">
      <feColorMatrix
         id="mask-powermask-path-effect1157_primitive1"
         values="1"
         type="saturate"
         result="fbSourceGraphic" />
      <feColorMatrix
         id="mask-powermask-path-effect1157_primitive2"
         values="-1 0 0 0 1 0 -1 0 0 1 0 0 -1 0 1 0 0 0 1 0 "
         in="fbSourceGraphic" />
    </filter>
    <clipPath
       clipPathUnits="userSpaceOnUse"
       id="clipPath1170">
      <use
         x="0"
         y="0"
         xlink:href="#g1166"
         id="use1172" />
    </clipPath>
  </defs>
  <circle
     style="fill:url(#linearGradient939);fill-opacity:1;stroke-width:19.3298;stroke-linecap:round;paint-order:stroke markers fill;stop-color:#000000"
     id="circle937"
     cx="64"
     cy="64"
     r="64" />
  <g
     id="g1168"
     clip-path="url(#clipPath1170)">
    <g
       inkscape:label="Clip"
       id="g1166">
      <path
         id="path905"
         mask="url(#mask-powermask-path-effect1157)"
         style="fill:#ffffff;fill-opacity:1;stroke:none;stroke-width:7.75908;stroke-linecap:round;stroke-linejoin:round;paint-order:markers fill stroke;stop-color:#000000"
         d="M 115.051,64 A 51.050999,51.050999 0 0 1 64,115.051 51.050999,51.050999 0 0 1 12.949001,64 51.050999,51.050999 0 0 1 64,12.949001 51.050999,51.050999 0 0 1 115.051,64 Z" />
    </g>
  </g>
</svg>
