<?xml version="1.0" encoding="UTF-8" standalone="no"?>
<svg
   xmlns:dc="http://purl.org/dc/elements/1.1/"
   xmlns:cc="http://creativecommons.org/ns#"
   xmlns:rdf="http://www.w3.org/1999/02/22-rdf-syntax-ns#"
   xmlns:svg="http://www.w3.org/2000/svg"
   xmlns="http://www.w3.org/2000/svg"
   xmlns:sodipodi="http://sodipodi.sourceforge.net/DTD/sodipodi-0.dtd"
   xmlns:inkscape="http://www.inkscape.org/namespaces/inkscape"
   version="1.1"
   id="Layer_1"
   x="0px"
   y="0px"
   viewBox="0 0 88.000001 87.999999"
   xml:space="preserve"
   sodipodi:docname="icon.svg"
   width="88"
   height="88"
   inkscape:version="1.0.1 (3bc2e813f5, 2020-09-07)"><metadata
   id="metadata16"><rdf:RDF><cc:Work
       rdf:about=""><dc:format>image/svg+xml</dc:format><dc:type
         rdf:resource="http://purl.org/dc/dcmitype/StillImage" /><dc:title></dc:title></cc:Work></rdf:RDF></metadata><defs
   id="defs14">
	
	
	
<clipPath
   id="id0">
     <path
   d="m 20389,250 c 11122,0 20139,9016 20139,20139 0,11122 -9016,20139 -20139,20139 C 9267,40528 250,31512 250,20389 250,9267 9266,250 20389,250 Z"
   id="path858" />
    </clipPath><clipPath
   id="id1">
     <path
   d="m 20389,2926 c 9644,0 17463,7818 17463,17463 0,9644 -7818,17463 -17463,17463 -9644,0 -17463,-7818 -17463,-17463 0,-9644 7818,-17463 17463,-17463 z"
   id="path861" />
    </clipPath>
  
  
 
   
   
   
   
   
   
  <clipPath
   id="id0-1">
     <path
   d="m 20389,250 c 11122,0 20139,9016 20139,20139 0,11122 -9016,20139 -20139,20139 C 9267,40528 250,31512 250,20389 250,9267 9266,250 20389,250 Z"
   id="path1210" />
    </clipPath><clipPath
   id="id1-2">
     <path
   d="m 20389,2926 c 9644,0 17463,7818 17463,17463 0,9644 -7818,17463 -17463,17463 -9644,0 -17463,-7818 -17463,-17463 0,-9644 7818,-17463 17463,-17463 z"
   id="path1213" />
    </clipPath>
  
  
 
   
   
   
   
   
   
  </defs><sodipodi:namedview
   pagecolor="#ffffff"
   bordercolor="#666666"
   borderopacity="1"
   objecttolerance="10"
   gridtolerance="10"
   guidetolerance="10"
   inkscape:pageopacity="0"
   inkscape:pageshadow="2"
   inkscape:window-width="1920"
   inkscape:window-height="1017"
   id="namedview12"
   showgrid="false"
   fit-margin-top="0"
   fit-margin-left="0"
   fit-margin-right="0"
   fit-margin-bottom="0"
   inkscape:zoom="4"
   inkscape:cx="-12.122262"
   inkscape:cy="31.042115"
   inkscape:window-x="-8"
   inkscape:window-y="-8"
   inkscape:window-maximized="1"
   inkscape:current-layer="Layer_1"
   inkscape:document-rotation="0" />
<style
   type="text/css"
   id="style2">
	.st0{fill:#F8BF08;}
	.st1{fill:#F59307;}
	.st2{fill:#FDFFFF;}
</style>

<g
   id="g882"
   style="clip-rule:evenodd;fill-rule:evenodd;image-rendering:optimizeQuality;shape-rendering:geometricPrecision;text-rendering:geometricPrecision"
   transform="matrix(0.00464358,0,0,0.00464358,69.597115,-18.543323)">
   </g><path
   class="st0"
   d="m 69.999999,87.999998 h -52 c -3.3,0 -5.999998,-2.7 -5.999998,-6 V 6 c 0,-3.3 2.699998,-6 5.999998,-6 h 36 l 22,22.000001 v 59.999997 c 0,3.3 -2.7,6 -6,6 z"
   id="path4"
   style="fill:#36a5d6;fill-opacity:1" /><path
   class="st1"
   d="m 53.999999,0 22,22.000001 h -22 z"
   id="path6"
   style="fill:#000000;fill-opacity:0.25" /><path
   d="m 63.620583,33.544738 -0.369322,0.06364 -12.326345,4.391185 -13.84983,-4.454825 -13.018837,4.030556 c -0.484744,0.148494 -0.83099,0.530336 -0.83099,1.018246 v 32.074734 a 1.1541522,1.0606725 0 0 0 1.154153,1.060673 l 0.369329,-0.06364 12.326345,-4.391184 13.84983,4.454825 13.01883,-4.030556 c 0.484745,-0.148494 0.830996,-0.530336 0.830996,-1.018246 V 34.605411 a 1.1541522,1.0606725 0 0 0 -1.154159,-1.060673 m -24.237192,5.239722 9.233217,2.969883 V 66.489226 L 39.383391,63.519343 V 38.78446 m -11.541523,2.100132 6.924913,-2.142558 V 63.561769 L 27.841868,66.02253 V 40.884592 m 32.316265,23.504502 -6.924917,2.142558 V 41.73313 l 6.924917,-2.46076 z"
   id="path857"
   style="font-variation-settings:normal;opacity:1;vector-effect:none;fill:#fdffff;fill-opacity:1;stroke:none;stroke-width:26.5079;stroke-linecap:round;stroke-linejoin:miter;stroke-miterlimit:4;stroke-dasharray:none;stroke-dashoffset:0;stroke-opacity:1;paint-order:stroke markers fill;stop-color:#000000;stop-opacity:1" /><path
   d="m 43.999952,44.300254 a 3.161136,3.161136 0 0 1 -3.161136,-3.161137 3.161136,3.161136 0 0 1 3.161136,-3.161136 3.161136,3.161136 0 0 1 3.161136,3.161136 3.161136,3.161136 0 0 1 -3.161136,3.161137 m 0,-12.012317 a 8.8511811,8.8511811 0 0 0 -8.851181,8.85118 c 0,6.638386 8.851181,16.437908 8.851181,16.437908 0,0 8.851181,-9.799522 8.851181,-16.437908 a 8.8511811,8.8511811 0 0 0 -8.851181,-8.85118 z"
   id="path931"
   style="fill:#fdffff;fill-opacity:1;stroke:#36a5d6;stroke-width:7;stroke-miterlimit:4;stroke-dasharray:none;stroke-opacity:1;paint-order:stroke fill markers" /></svg>
