<?xml version="1.0" encoding="UTF-8" standalone="no"?>
<svg
   xmlns:dc="http://purl.org/dc/elements/1.1/"
   xmlns:cc="http://creativecommons.org/ns#"
   xmlns:rdf="http://www.w3.org/1999/02/22-rdf-syntax-ns#"
   xmlns:svg="http://www.w3.org/2000/svg"
   xmlns="http://www.w3.org/2000/svg"
   xmlns:sodipodi="http://sodipodi.sourceforge.net/DTD/sodipodi-0.dtd"
   xmlns:inkscape="http://www.inkscape.org/namespaces/inkscape"
   version="1.1"
   id="Layer_1"
   x="0px"
   y="0px"
   viewBox="0 0 240 240"
   xml:space="preserve"
   sodipodi:docname="icon.svg"
   inkscape:version="1.0.1 (3bc2e813f5, 2020-09-07)"
   width="240"
   height="240"><metadata
   id="metadata873"><rdf:RDF><cc:Work
       rdf:about=""><dc:format>image/svg+xml</dc:format><dc:type
         rdf:resource="http://purl.org/dc/dcmitype/StillImage" /><dc:title></dc:title></cc:Work></rdf:RDF></metadata><defs
   id="defs871"><clipPath
     clipPathUnits="userSpaceOnUse"
     id="clipPath884"><rect
       style="fill:#1b1c1d;fill-opacity:1;stroke:none;stroke-width:1.50979;stroke-linecap:round"
       id="rect886"
       width="240"
       height="234"
       x="0"
       y="0"
       ry="42.231758" /></clipPath></defs><sodipodi:namedview
   pagecolor="#ffffff"
   bordercolor="#666666"
   borderopacity="1"
   objecttolerance="10"
   gridtolerance="10"
   guidetolerance="10"
   inkscape:pageopacity="0"
   inkscape:pageshadow="2"
   inkscape:window-width="1920"
   inkscape:window-height="1017"
   id="namedview869"
   showgrid="false"
   inkscape:zoom="2.0594485"
   inkscape:cx="139.17097"
   inkscape:cy="98.651716"
   inkscape:window-x="-8"
   inkscape:window-y="-8"
   inkscape:window-maximized="1"
   inkscape:current-layer="Layer_1"
   inkscape:document-rotation="0" />
<style
   type="text/css"
   id="style854">
	.st0{fill:#001E36;}
	.st1{fill:#31A8FF;}
</style>

<rect
   style="fill:#1b1c1d;fill-opacity:1;stroke:none;stroke-width:1.50979;stroke-linecap:round"
   id="rect882"
   width="240"
   height="234"
   x="0"
   y="3"
   ry="42.231758" /><path
   style="fill:#0000a0;fill-opacity:0.5;stroke:#0000a0;stroke-width:1px;stroke-linecap:butt;stroke-linejoin:miter;stroke-opacity:1"
   d="M 27,91.833328 C 57.296893,91.833328 58.550545,31.5 89,31.5 c 30.44945,0 32.36912,60.333 62,60.333 29.63088,0 31.48821,-60.333 62,-60.333 30.51179,0 0,180.99899 0,180.99899 l -186,3.4e-4 V 91.833328"
   id="path870" /><path
   style="fill:#00a000;fill-opacity:0.5;stroke:#00a000;stroke-width:1px;stroke-linecap:butt;stroke-linejoin:miter;stroke-opacity:1"
   d="m 27,150.166 c 30.539676,0 32.521679,-60.332672 62,-60.332672 29.47832,0 31.88355,60.332672 62,60.332672 30.11645,0 31.48821,-60.332672 62,-60.332672 30.51179,0 0,120.666002 0,120.666002 H 27 Z"
   id="path868" /><path
   style="fill:#a00000;fill-opacity:0.401606;stroke:#a00000;stroke-width:1px;stroke-linecap:butt;stroke-linejoin:miter;stroke-opacity:1"
   d="m 27,210.49933 c 30.054109,0.0805 31.793329,-60.33333 62,-60.33333 30.20667,0 31.64077,60.33299 62,60.33299 30.35923,0 31.97377,-60.33299 62,-60.33299 30.02623,0 0,60.33299 0,60.33299 z"
   id="path862" /><path
   id="rect872"
   clip-path="url(#clipPath884)"
   style="fill:none;fill-opacity:1;stroke:#1b1c1d;stroke-width:55;stroke-linecap:round;stroke-miterlimit:4;stroke-dasharray:none;stroke-opacity:1;paint-order:normal"
   d="M 42.231758,0 H 197.76824 C 221.16464,0 240,18.835364 240,42.231758 V 191.76824 C 240,215.16464 221.16464,234 197.76824,234 H 42.231758 C 18.835364,234 0,215.16464 0,191.76824 V 42.231758 C 0,18.835364 18.835364,0 42.231758,0 Z"
   transform="translate(0,3)" /></svg>
