<?xml version="1.0" encoding="UTF-8" standalone="no"?>
<svg
   xmlns:sketch="http://www.bohemiancoding.com/sketch/ns"
   xmlns:dc="http://purl.org/dc/elements/1.1/"
   xmlns:cc="http://creativecommons.org/ns#"
   xmlns:rdf="http://www.w3.org/1999/02/22-rdf-syntax-ns#"
   xmlns:svg="http://www.w3.org/2000/svg"
   xmlns="http://www.w3.org/2000/svg"
   xmlns:sodipodi="http://sodipodi.sourceforge.net/DTD/sodipodi-0.dtd"
   xmlns:inkscape="http://www.inkscape.org/namespaces/inkscape"
   version="1.1"
   id="Layer_1"
   x="0px"
   y="0px"
   viewBox="0 0 88.000001 87.999999"
   xml:space="preserve"
   sodipodi:docname="icon.svg"
   width="88"
   height="88"
   inkscape:version="1.0.1 (3bc2e813f5, 2020-09-07)"><metadata
   id="metadata16"><rdf:RDF><cc:Work
       rdf:about=""><dc:format>image/svg+xml</dc:format><dc:type
         rdf:resource="http://purl.org/dc/dcmitype/StillImage" /><dc:title /></cc:Work></rdf:RDF></metadata><defs
   id="defs14">
	
	
	
<clipPath
   id="id0">
     <path
   d="m 20389,250 c 11122,0 20139,9016 20139,20139 0,11122 -9016,20139 -20139,20139 C 9267,40528 250,31512 250,20389 250,9267 9266,250 20389,250 Z"
   id="path858" />
    </clipPath><clipPath
   id="id1">
     <path
   d="m 20389,2926 c 9644,0 17463,7818 17463,17463 0,9644 -7818,17463 -17463,17463 -9644,0 -17463,-7818 -17463,-17463 0,-9644 7818,-17463 17463,-17463 z"
   id="path861" />
    </clipPath>
  
  
 
   
   
   
   
   
   
  <clipPath
   id="id0-1">
     <path
   d="m 20389,250 c 11122,0 20139,9016 20139,20139 0,11122 -9016,20139 -20139,20139 C 9267,40528 250,31512 250,20389 250,9267 9266,250 20389,250 Z"
   id="path1210" />
    </clipPath><clipPath
   id="id1-2">
     <path
   d="m 20389,2926 c 9644,0 17463,7818 17463,17463 0,9644 -7818,17463 -17463,17463 -9644,0 -17463,-7818 -17463,-17463 0,-9644 7818,-17463 17463,-17463 z"
   id="path1213" />
    </clipPath>
  
  
 
   
   
   
   
   
   
  </defs><sodipodi:namedview
   pagecolor="#ffffff"
   bordercolor="#666666"
   borderopacity="1"
   objecttolerance="10"
   gridtolerance="10"
   guidetolerance="10"
   inkscape:pageopacity="0"
   inkscape:pageshadow="2"
   inkscape:window-width="1920"
   inkscape:window-height="1017"
   id="namedview12"
   showgrid="false"
   fit-margin-top="0"
   fit-margin-left="0"
   fit-margin-right="0"
   fit-margin-bottom="0"
   inkscape:zoom="2"
   inkscape:cx="-75.063427"
   inkscape:cy="42.048246"
   inkscape:window-x="-8"
   inkscape:window-y="-8"
   inkscape:window-maximized="1"
   inkscape:current-layer="Layer_1"
   inkscape:document-rotation="0" />
<style
   type="text/css"
   id="style2">
	.st0{fill:#F8BF08;}
	.st1{fill:#F59307;}
	.st2{fill:#FDFFFF;}
</style>

<g
   id="g882"
   style="clip-rule:evenodd;fill-rule:evenodd;image-rendering:optimizeQuality;shape-rendering:geometricPrecision;text-rendering:geometricPrecision"
   transform="matrix(0.00464358,0,0,0.00464358,69.597115,-18.543323)">
   </g><path
   class="st0"
   d="m 69.999999,87.999998 h -52 c -3.3,0 -5.999998,-2.7 -5.999998,-6 V 6 c 0,-3.3 2.699998,-6 5.999998,-6 h 36 l 22,22.000001 v 59.999997 c 0,3.3 -2.7,6 -6,6 z"
   id="path4"
   style="fill:#fa9822;fill-opacity:1" /><path
   class="st1"
   d="m 53.999999,0 22,22.000001 h -22 z"
   id="path6"
   style="fill:#c2771b;fill-opacity:1" /><g
   id="g943"
   transform="translate(1.1479285e-4,4.4910112)"><path
     d="m 57.371901,60.717079 c -0.58927,-1.813295 -2.289088,-3.150601 -4.306205,-3.150601 h -2.266424 v -6.799859 a 2.266424,2.2666197 0 0 0 -2.266424,-2.26662 H 34.934304 v -4.53324 h 4.532848 A 2.266424,2.2666197 0 0 0 41.733576,41.70014 V 37.1669 h 4.532848 a 4.5328479,4.5332395 0 0 0 4.532848,-4.533239 v -0.929314 c 6.640622,2.674611 11.33212,9.17981 11.33212,16.795652 0,4.714569 -1.81314,8.99848 -4.759491,12.21708 M 41.733576,66.474294 C 32.781201,65.36365 25.868608,57.747808 25.868608,48.499999 c 0,-1.405304 0.181314,-2.765276 0.475949,-4.057249 l 10.856171,10.857108 v 2.26662 a 4.5328479,4.5332395 0 0 0 4.532848,4.53324 M 44,25.833802 A 22.664239,22.666197 0 0 0 21.335761,48.499999 22.664239,22.666197 0 0 0 44,71.166197 22.664239,22.666197 0 0 0 66.66424,48.499999 22.664239,22.666197 0 0 0 44,25.833802 Z"
     id="path893"
     style="font-variation-settings:normal;opacity:1;vector-effect:none;fill:#fdffff;fill-opacity:1;stroke-width:0.0535384;stroke-linecap:butt;stroke-linejoin:miter;stroke-miterlimit:4;stroke-dasharray:none;stroke-dashoffset:0;stroke-opacity:1;stop-color:#000000;stop-opacity:1" /><g
     id="g918"
     transform="matrix(0.31742297,0,0,0.31742297,52.938876,16.201574)"
     style="fill:#fdffff;fill-opacity:1;stroke:#fa9822;stroke-width:12.6015;stroke-linecap:round;stroke-linejoin:miter;stroke-miterlimit:4;stroke-dasharray:none;stroke-opacity:1;paint-order:stroke markers fill"><g
       id="g920"
       style="opacity:1"><path
         style="color:#000000;font-style:normal;font-variant:normal;font-weight:normal;font-stretch:normal;font-size:medium;line-height:normal;font-family:sans-serif;font-variant-ligatures:normal;font-variant-position:normal;font-variant-caps:normal;font-variant-numeric:normal;font-variant-alternates:normal;font-variant-east-asian:normal;font-feature-settings:normal;font-variation-settings:normal;text-indent:0;text-align:start;text-decoration:none;text-decoration-line:none;text-decoration-style:solid;text-decoration-color:#000000;letter-spacing:normal;word-spacing:normal;text-transform:none;writing-mode:lr-tb;direction:ltr;text-orientation:mixed;dominant-baseline:auto;baseline-shift:baseline;text-anchor:start;white-space:normal;shape-padding:0;shape-margin:0;inline-size:0;clip-rule:nonzero;display:inline;overflow:visible;visibility:visible;isolation:auto;mix-blend-mode:normal;color-interpolation:sRGB;color-interpolation-filters:linearRGB;solid-color:#000000;solid-opacity:1;vector-effect:none;fill:#fa9822;fill-opacity:1;fill-rule:evenodd;stroke:none;stroke-width:12.6015;stroke-linecap:round;stroke-linejoin:miter;stroke-miterlimit:4;stroke-dasharray:none;stroke-dashoffset:0;stroke-opacity:1;paint-order:stroke markers fill;color-rendering:auto;image-rendering:auto;shape-rendering:auto;text-rendering:auto;enable-background:accumulate;stop-color:#000000;stop-opacity:1"
         d="m 9.4785156,63.84375 1.3417964,8.568359 c 0.09001,0.574948 0.09106,1.230966 -0.0293,1.957032 -0.205079,1.237176 -0.71988,2.582185 -1.7207035,4.271484 l 0.00391,-0.0039 c -0.020432,0.03442 -0.04144,0.07027 -0.0625,0.105469 l -5.0136719,8.376953 9.6992194,1.117187 c 7.048686,0.811287 12.441406,6.653088 12.441406,13.830086 0,7.72858 -6.201647,13.92578 -14.09961,13.92578 -0.230324,0 -4.4853995,-1.12703 -9.4238279,-4.15821 -1.542808,-0.94696 -3.32640924,-2.31127 -5.0214844,-3.51757 L 3.875,102.55664 h -16.193359 -17.882813 l 8.220703,6.61328 -7.996093,7.33203 5.617187,4.60547 c 1.246765,1.02236 2.511369,2.03155 3.789063,3.02149 3.712945,2.87671 7.365061,5.4521 10.9433589,7.64843 7.4585689,4.57804 14.4408066,7.61719 21.6660151,7.61719 20.608961,0 37.5,-16.76 37.5,-37.32812 0,-18.533121 -13.660096,-33.988255 -31.496093,-36.849613 z m -77.8398436,0.896484 c -20.608959,0 -37.500002,16.758043 -37.500002,37.326176 0,20.56812 16.891044,37.32812 37.500002,37.32812 4.429146,0 8.794634,-1.19643 13.195312,-3.11719 l 28.292617,-16.57597 -41.497695,-2.74629 c -0.08635,-0.0505 -0.166279,-0.1026 -0.238281,-0.1543 l -1.123047,-0.80469 -1.357422,-0.26367 c -6.501178,-1.25511 -11.371094,-6.85727 -11.371094,-13.66601 0,-7.728581 6.201655,-13.925785 14.09961,-13.925785 0.08549,0 0.812587,0.07435 1.859375,0.414063 l 6.267578,2.033203 1.751953,-6.351563 c 0.223592,-0.81087 0.710543,-1.598572 2.138672,-2.214844 l 43.109446,7.299715 -39.296946,-20.229402 c -5.319294,-2.655471 -10.520587,-4.351563 -15.830078,-4.351563 z"
         id="path922"
         sodipodi:nodetypes="ccscccccssscccccccssssccsssccccccssccccccs" /><path
         style="color:#000000;font-style:normal;font-variant:normal;font-weight:normal;font-stretch:normal;font-size:medium;line-height:normal;font-family:sans-serif;font-variant-ligatures:normal;font-variant-position:normal;font-variant-caps:normal;font-variant-numeric:normal;font-variant-alternates:normal;font-variant-east-asian:normal;font-feature-settings:normal;font-variation-settings:normal;text-indent:0;text-align:start;text-decoration:none;text-decoration-line:none;text-decoration-style:solid;text-decoration-color:#000000;letter-spacing:normal;word-spacing:normal;text-transform:none;writing-mode:lr-tb;direction:ltr;text-orientation:mixed;dominant-baseline:auto;baseline-shift:baseline;text-anchor:start;white-space:normal;shape-padding:0;shape-margin:0;inline-size:0;clip-rule:nonzero;display:inline;overflow:visible;visibility:visible;isolation:auto;mix-blend-mode:normal;color-interpolation:sRGB;color-interpolation-filters:linearRGB;solid-color:#000000;solid-opacity:1;vector-effect:none;fill:#fdffff;fill-opacity:1;fill-rule:evenodd;stroke:none;stroke-width:12.6015;stroke-linecap:round;stroke-linejoin:miter;stroke-miterlimit:4;stroke-dasharray:none;stroke-dashoffset:0;stroke-opacity:1;paint-order:stroke markers fill;color-rendering:auto;image-rendering:auto;shape-rendering:auto;text-rendering:auto;enable-background:accumulate;stop-color:#000000;stop-opacity:1"
         d="m -12.31819,108.85702 -8.045732,7.37854 c 1.204316,0.98755 2.423452,1.96093 3.652496,2.91317 3.569936,2.76591 7.046436,5.21338 10.380106,7.25956 6.96449,4.27477 13.04701,6.68487 18.37055,6.68487 17.22315,0 31.2,-13.88273 31.2,-31.02626 0,-15.447351 -11.34793,-28.247229 -26.19355,-30.628853 v 0 c 0.20234,1.292439 0.18243,2.627539 -0.0388,3.962191 -0.36569,2.206099 -1.24388,4.306652 -2.51521,6.452541 -0.0245,0.04128 -0.0491,0.08255 -0.0738,0.123829 10.15215,1.168488 18.02134,9.724498 18.02134,20.090292 0,11.16246 -9.12525,20.22626 -20.4,20.22626 -2.84509,0 -7.31477,-1.77104 -12.72092,-5.0893 -2.97024,-1.82312 -6.13467,-4.05089 -9.41513,-6.59253 -0.74365,-0.57616 -1.4846,-1.16158 -2.22137,-1.75431 z M -64.556264,82.561233 c 0.725693,-2.631768 2.652988,-5.003079 5.715606,-6.324672 l 3.494383,-1.50791 c -4.780562,-2.386528 -9.102458,-3.688016 -13.014495,-3.688016 -17.223147,0 -31.2,13.882733 -31.2,31.026265 0,17.14353 13.976853,31.02626 31.2,31.02626 3.263397,0 6.812007,-0.90568 10.674161,-2.59139 v 0 l -13.865401,-8.10751 c -0.255036,-0.14912 -0.498818,-0.30758 -0.731336,-0.47453 -9.395041,-1.8138 -16.477424,-10.0189 -16.477424,-19.85283 0,-11.16246 9.125254,-20.226265 20.4,-20.226265 1.056062,0 2.335962,0.244015 3.804506,0.720598 z"
         id="path924" /></g><g
       id="g926"
       style="opacity:1"><path
         style="color:#000000;font-style:normal;font-variant:normal;font-weight:normal;font-stretch:normal;font-size:medium;line-height:normal;font-family:sans-serif;font-variant-ligatures:normal;font-variant-position:normal;font-variant-caps:normal;font-variant-numeric:normal;font-variant-alternates:normal;font-variant-east-asian:normal;font-feature-settings:normal;font-variation-settings:normal;text-indent:0;text-align:start;text-decoration:none;text-decoration-line:none;text-decoration-style:solid;text-decoration-color:#000000;letter-spacing:normal;word-spacing:normal;text-transform:none;writing-mode:lr-tb;direction:ltr;text-orientation:mixed;dominant-baseline:auto;baseline-shift:baseline;text-anchor:start;white-space:normal;shape-padding:0;shape-margin:0;inline-size:0;clip-rule:nonzero;display:inline;overflow:visible;visibility:visible;isolation:auto;mix-blend-mode:normal;color-interpolation:sRGB;color-interpolation-filters:linearRGB;solid-color:#000000;solid-opacity:1;vector-effect:none;fill:#fa9822;fill-opacity:1;fill-rule:evenodd;stroke:none;stroke-width:12.6015;stroke-linecap:round;stroke-linejoin:miter;stroke-miterlimit:4;stroke-dasharray:none;stroke-dashoffset:0;stroke-opacity:1;paint-order:stroke markers fill;color-rendering:auto;image-rendering:auto;shape-rendering:auto;text-rendering:auto;enable-background:accumulate;stop-color:#000000;stop-opacity:1"
         d="m 7.6582031,64.179688 c -1.6106366,-0.192084 -2.8412599,0.01253 -3.8476562,0.240234 -0.7121683,0.161131 -0.6973754,0.244617 -1.2324219,0.439453 -1.3111161,-0.04483 -2.50150896,0.123639 -3.4375,0.404297 -1.6582525,0.497229 -2.9556905,1.197775 -4.1503906,1.925781 -2.3894003,1.456012 -4.2562485,3.044767 -5.4765624,4.205078 0.205635,-0.195522 -3.978088,3.226504 -7.298828,5.791016 -2.842341,2.195057 -4.79036,3.672474 -5.50586,4.216797 0.146838,-0.01931 0.322324,0.119057 1.083985,0.333984 l -1.109375,-0.3125 c -0.113903,0.08665 -0.900391,0.689453 -0.900391,0.689453 0.610472,-0.46735 0.731514,-0.660017 0.873047,-0.697265 l -21.080078,-5.949219 c -3.659649,-1.032686 -6.375551,-0.850168 -9.857422,0.652344 l -3.886719,1.677734 c -2.033161,0.877359 -4.712836,3.025578 -4.992187,6.595703 -0.279352,3.570125 2.064712,6.13741 3.955078,7.306641 l 0.05078,0.03125 0.05078,0.03125 c 0,0 5.138072,3.052559 10.544922,7.246093 2.990224,2.319208 2.526932,2.027778 3.384766,2.759768 l -6.148438,5.1289 c 0.04657,0.0259 0.08078,0.10082 0.669922,0.17969 l -0.761718,-0.10156 -0.59375,0.49414 c 0.457968,-0.38195 0.446656,-0.4631 0.472656,-0.50977 l -8.388672,-1.12304 c -3.118068,-0.41744 -4.885789,-0.0843 -7.638672,1.46094 l -3.033203,1.70117 V 109 c -1.528402,0.85796 -3.576118,3.00053 -3.578125,5.98242 -0.002,2.98189 1.987792,5.0725 3.480469,5.94531 l 14.896484,8.71094 c 3.435401,2.00884 6.018697,2.0801 9.560547,0.26172 l 16.68164,-8.56445 c 1.785021,-0.91642 3.157252,-1.87337 4.632813,-3.22656 l 29.9882812,-27.501958 0.023438,-0.01953 c 0,0 3.1815779,-2.934534 6.0058588,-6.722657 1.412141,-1.894061 2.817205,-3.982299 3.71875,-6.685546 0.895537,-2.685234 1.095052,-7.181145 -1.828125,-10.31836 -1.586981,-1.716276 -3.7351128,-2.491659 -5.3281245,-2.68164 z m -60.3359371,16.742187 0.101562,0.06055 c 0.0015,9.09e-4 0.0063,0.0069 0.0078,0.0078 -0.0026,-0.0015 -0.109375,-0.06836 -0.109375,-0.06836 z m 44.6757809,4.572266 -25.4374999,23.328129 c -0.152923,0.14024 -1.686469,1.2099 -1.871094,1.30468 l -0.544922,0.2793 2.160157,-1.80078 c 3.834085,-3.19761 4.024923,-9.956105 0.310546,-13.375001 -0.11009,-0.108782 -2.358592,-2.104286 -6.496093,-5.388672 l 14.251953,4.021484 c 3.680472,1.038564 5.997915,0.597664 9.035156,-1.714843 l 0.0098,-0.0078 c 0.0096,-0.0073 3.137454,-2.382164 6.501953,-4.980469 0.8465019,-0.653729 1.2959051,-1.065507 2.0800779,-1.666015 z"
         id="path928" /><path
         style="color:#000000;font-style:normal;font-variant:normal;font-weight:normal;font-stretch:normal;font-size:medium;line-height:normal;font-family:sans-serif;font-variant-ligatures:normal;font-variant-position:normal;font-variant-caps:normal;font-variant-numeric:normal;font-variant-alternates:normal;font-variant-east-asian:normal;font-feature-settings:normal;font-variation-settings:normal;text-indent:0;text-align:start;text-decoration:none;text-decoration-line:none;text-decoration-style:solid;text-decoration-color:#000000;letter-spacing:normal;word-spacing:normal;text-transform:none;writing-mode:lr-tb;direction:ltr;text-orientation:mixed;dominant-baseline:auto;baseline-shift:baseline;text-anchor:start;white-space:normal;shape-padding:0;shape-margin:0;inline-size:0;clip-rule:nonzero;display:inline;overflow:visible;visibility:visible;isolation:auto;mix-blend-mode:normal;color-interpolation:sRGB;color-interpolation-filters:linearRGB;solid-color:#000000;solid-opacity:1;vector-effect:none;fill:#fdffff;fill-opacity:1;fill-rule:evenodd;stroke:none;stroke-width:12.6015;stroke-linecap:round;stroke-linejoin:miter;stroke-miterlimit:4;stroke-dasharray:none;stroke-dashoffset:0;stroke-opacity:1;paint-order:stroke markers fill;color-rendering:auto;image-rendering:auto;shape-rendering:auto;text-rendering:auto;enable-background:accumulate;stop-color:#000000;stop-opacity:1"
         d="m -29.180596,113.46636 c -0.814242,0.74672 -2.267608,1.75934 -3.252431,2.26494 l -16.680243,8.56369 c -0.982026,0.50417 -2.552197,0.46026 -3.502969,-0.0957 l -14.897611,-8.71108 c -0.479008,-0.28009 -0.479639,-0.72475 0.0016,-0.99489 l 3.033074,-1.70247 c 0.960039,-0.53888 2.627193,-0.85672 3.719609,-0.71047 l 9.271667,1.24127 c 1.094245,0.1465 2.670204,-0.30928 3.515492,-1.01425 l 10.240979,-8.54092 c 1.275848,-1.06405 1.319471,-2.83769 0.08901,-3.931771 0,0 -1.291792,-1.334781 -7.055462,-5.805063 -5.763669,-4.470282 -11.192609,-7.688617 -11.192609,-7.688617 -1.401423,-0.866809 -1.30853,-2.099827 0.219486,-2.759203 l 3.886677,-1.677194 c 1.522642,-0.657057 4.04259,-0.826932 5.649839,-0.373396 l 22.216348,6.269046 c 1.061697,0.299592 2.635275,-1.49e-4 3.513764,-0.669936 0,0 12.500986,-9.497068 14.260516,-11.170063 1.75951,-1.672995 6.89819,-5.809387 9.33208,-4.681555 0,0 3.63824,-1.853049 5.18704,-0.143712 C 12.27892,75.24058 0.78653,85.98426 0.78653,85.98426 Z"
         id="path930" /></g></g><g
     id="g1592"
     transform="matrix(0.31742297,0,0,0.31742297,52.938876,16.201574)"
     style="fill:#fdffff;fill-opacity:1;stroke:none;stroke-width:11.9791;stroke-linecap:round;stroke-linejoin:miter;stroke-miterlimit:4;stroke-dasharray:none;stroke-opacity:1;paint-order:stroke markers fill"><path
       d="m -12.31819,108.85702 -8.045732,7.37854 c 1.204316,0.98755 2.423452,1.96093 3.652496,2.91317 3.569936,2.76591 7.046436,5.21338 10.380106,7.25956 6.96449,4.27477 13.04701,6.68487 18.37055,6.68487 17.22315,0 31.2,-13.88273 31.2,-31.02626 0,-15.447351 -11.34793,-28.247229 -26.19355,-30.628853 v 0 c 0.20234,1.292439 0.18243,2.627539 -0.0388,3.962191 -0.36569,2.206099 -1.24388,4.306652 -2.51521,6.452541 -0.0245,0.04128 -0.0491,0.08255 -0.0738,0.123829 10.15215,1.168488 18.02134,9.724498 18.02134,20.090292 0,11.16246 -9.12525,20.22626 -20.4,20.22626 -2.84509,0 -7.31477,-1.77104 -12.72092,-5.0893 -2.97024,-1.82312 -6.13467,-4.05089 -9.41513,-6.59253 -0.74365,-0.57616 -1.4846,-1.16158 -2.22137,-1.75431 z M -64.556264,82.561233 c 0.725693,-2.631768 2.652988,-5.003079 5.715606,-6.324672 l 3.494383,-1.50791 c -4.780562,-2.386528 -9.102458,-3.688016 -13.014495,-3.688016 -17.223147,0 -31.2,13.882733 -31.2,31.026265 0,17.14353 13.976853,31.02626 31.2,31.02626 3.263397,0 6.812007,-0.90568 10.674161,-2.59139 v 0 l -13.865401,-8.10751 c -0.255036,-0.14912 -0.498818,-0.30758 -0.731336,-0.47453 -9.395041,-1.8138 -16.477424,-10.0189 -16.477424,-19.85283 0,-11.16246 9.125254,-20.226265 20.4,-20.226265 1.056062,0 2.335962,0.244015 3.804506,0.720598 z"
       id="path1588"
       fill="#ffffff"
       sketch:type="MSShapeGroup"
       style="fill:#fdffff;fill-opacity:1;fill-rule:evenodd;stroke:none;stroke-width:11.9791;stroke-linecap:round;stroke-linejoin:miter;stroke-miterlimit:4;stroke-dasharray:none;stroke-opacity:1;paint-order:stroke markers fill" /><path
       d="m -29.180596,113.46636 c -0.814242,0.74672 -2.267608,1.75934 -3.252431,2.26494 l -16.680243,8.56369 c -0.982026,0.50417 -2.552197,0.46026 -3.502969,-0.0957 l -14.897611,-8.71108 c -0.479008,-0.28009 -0.479639,-0.72475 0.0016,-0.99489 l 3.033074,-1.70247 c 0.960039,-0.53888 2.627193,-0.85672 3.719609,-0.71047 l 9.271667,1.24127 c 1.094245,0.1465 2.670204,-0.30928 3.515492,-1.01425 l 10.240979,-8.54092 c 1.275848,-1.06405 1.319471,-2.83769 0.08901,-3.931771 0,0 -1.291792,-1.334781 -7.055462,-5.805063 -5.763669,-4.470282 -11.192609,-7.688617 -11.192609,-7.688617 -1.401423,-0.866809 -1.30853,-2.099827 0.219486,-2.759203 l 3.886677,-1.677194 c 1.522642,-0.657057 4.04259,-0.826932 5.649839,-0.373396 l 22.216348,6.269046 c 1.061697,0.299592 2.635275,-1.49e-4 3.513764,-0.669936 0,0 12.500986,-9.497068 14.260516,-11.170063 1.75951,-1.672995 6.89819,-5.809387 9.33208,-4.681555 0,0 3.63824,-1.853049 5.18704,-0.143712 C 12.27892,75.24058 0.78653,85.98426 0.78653,85.98426 Z"
       id="path1590"
       fill="#ffffff"
       sketch:type="MSShapeGroup"
       style="fill:#fdffff;fill-opacity:1;fill-rule:evenodd;stroke:none;stroke-width:11.9791;stroke-linecap:round;stroke-linejoin:miter;stroke-miterlimit:4;stroke-dasharray:none;stroke-opacity:1;paint-order:stroke markers fill" /></g></g></svg>
