<?xml version="1.0" encoding="UTF-8" standalone="no"?>
<svg
   xmlns:dc="http://purl.org/dc/elements/1.1/"
   xmlns:cc="http://creativecommons.org/ns#"
   xmlns:rdf="http://www.w3.org/1999/02/22-rdf-syntax-ns#"
   xmlns:svg="http://www.w3.org/2000/svg"
   xmlns="http://www.w3.org/2000/svg"
   xmlns:sodipodi="http://sodipodi.sourceforge.net/DTD/sodipodi-0.dtd"
   xmlns:inkscape="http://www.inkscape.org/namespaces/inkscape"
   version="1.1"
   width="20"
   height="20"
   viewBox="0 0 20 20"
   id="svg1448"
   sodipodi:docname="earth.svg"
   inkscape:version="1.0.1 (3bc2e813f5, 2020-09-07)">
  <metadata
     id="metadata1454">
    <rdf:RDF>
      <cc:Work
         rdf:about="">
        <dc:format>image/svg+xml</dc:format>
        <dc:type
           rdf:resource="http://purl.org/dc/dcmitype/StillImage" />
        <dc:title></dc:title>
      </cc:Work>
    </rdf:RDF>
  </metadata>
  <defs
     id="defs1452" />
  <sodipodi:namedview
     pagecolor="#ffffff"
     bordercolor="#666666"
     borderopacity="1"
     objecttolerance="10"
     gridtolerance="10"
     guidetolerance="10"
     inkscape:pageopacity="0"
     inkscape:pageshadow="2"
     inkscape:window-width="1920"
     inkscape:window-height="1017"
     id="namedview1450"
     showgrid="false"
     inkscape:zoom="35.416667"
     inkscape:cx="12"
     inkscape:cy="10.870588"
     inkscape:window-x="-8"
     inkscape:window-y="-8"
     inkscape:window-maximized="1"
     inkscape:current-layer="svg1448"
     inkscape:document-rotation="0" />
  <path
     d="M 15.9,15.39 C 15.64,14.59 14.89,14 14,14 H 13 V 11 A 1,1 0 0 0 12,10 H 6 V 8 H 8 A 1,1 0 0 0 9,7 V 5 h 2 A 2,2 0 0 0 13,3 V 2.59 c 2.93,1.18 5,4.05 5,7.41 0,2.08 -0.8,3.97 -2.1,5.39 M 9,17.93 C 5.05,17.44 2,14.08 2,10 2,9.38 2.08,8.78 2.21,8.21 L 7,13 v 1 a 2,2 0 0 0 2,2 M 10,0 A 10,10 0 0 0 0,10 10,10 0 0 0 10,20 10,10 0 0 0 20,10 10,10 0 0 0 10,0 Z"
     id="path1446"
     style="fill:#0366d6;fill-opacity:1" />
</svg>
