<?xml version="1.0" encoding="UTF-8" standalone="no"?>
<svg
   xmlns:dc="http://purl.org/dc/elements/1.1/"
   xmlns:cc="http://creativecommons.org/ns#"
   xmlns:rdf="http://www.w3.org/1999/02/22-rdf-syntax-ns#"
   xmlns:svg="http://www.w3.org/2000/svg"
   xmlns="http://www.w3.org/2000/svg"
   xmlns:sodipodi="http://sodipodi.sourceforge.net/DTD/sodipodi-0.dtd"
   xmlns:inkscape="http://www.inkscape.org/namespaces/inkscape"
   version="1.1"
   width="18"
   height="18"
   viewBox="0 0 18 18"
   id="svg2029"
   sodipodi:docname="zip-box-outline.svg"
   inkscape:version="1.0.1 (3bc2e813f5, 2020-09-07)">
  <metadata
     id="metadata2035">
    <rdf:RDF>
      <cc:Work
         rdf:about="">
        <dc:format>image/svg+xml</dc:format>
        <dc:type
           rdf:resource="http://purl.org/dc/dcmitype/StillImage" />
        <dc:title></dc:title>
      </cc:Work>
    </rdf:RDF>
  </metadata>
  <defs
     id="defs2033" />
  <sodipodi:namedview
     pagecolor="#ffffff"
     bordercolor="#666666"
     borderopacity="1"
     objecttolerance="10"
     gridtolerance="10"
     guidetolerance="10"
     inkscape:pageopacity="0"
     inkscape:pageshadow="2"
     inkscape:window-width="1920"
     inkscape:window-height="1017"
     id="namedview2031"
     showgrid="false"
     inkscape:zoom="25.043365"
     inkscape:cx="7.4036915"
     inkscape:cy="12.2573"
     inkscape:window-x="-8"
     inkscape:window-y="-8"
     inkscape:window-maximized="1"
     inkscape:current-layer="svg2029"
     inkscape:document-rotation="0" />
  <path
     d="m 9,14 v -2 h 2 v 2 H 9 m 2,-4 V 8 H 9 v 2 h 2 M 11,6 V 4 H 9 v 2 h 2 M 7,8 H 9 V 6 H 7 v 2 m 0,4 H 9 V 10 H 7 v 2 M 18,2 v 14 c 0,1.1 -0.9,2 -2,2 H 2 C 0.9,18 0,17.1 0,16 V 2 C 0,0.9 0.9,0 2,0 h 14 c 1.1,0 2,0.9 2,2 M 16,2 H 9 V 4 H 7 V 2 H 2 v 14 h 14 z"
     id="path2027"
     style="fill:#0366d6;fill-opacity:1" />
</svg>
