<?xml version="1.0" encoding="UTF-8" standalone="no"?>
<svg
   xmlns:dc="http://purl.org/dc/elements/1.1/"
   xmlns:cc="http://creativecommons.org/ns#"
   xmlns:rdf="http://www.w3.org/1999/02/22-rdf-syntax-ns#"
   xmlns:svg="http://www.w3.org/2000/svg"
   xmlns="http://www.w3.org/2000/svg"
   xmlns:sodipodi="http://sodipodi.sourceforge.net/DTD/sodipodi-0.dtd"
   xmlns:inkscape="http://www.inkscape.org/namespaces/inkscape"
   version="1.1"
   id="Layer_1"
   x="0px"
   y="0px"
   viewBox="0 0 240 234"
   style="enable-background:new 0 0 240 234;"
   xml:space="preserve"
   sodipodi:docname="GITreleaseAPI.svg"
   inkscape:version="1.0.1 (3bc2e813f5, 2020-09-07)"><metadata
   id="metadata873"><rdf:RDF><cc:Work
       rdf:about=""><dc:format>image/svg+xml</dc:format><dc:type
         rdf:resource="http://purl.org/dc/dcmitype/StillImage" /><dc:title></dc:title></cc:Work></rdf:RDF></metadata><defs
   id="defs871" /><sodipodi:namedview
   pagecolor="#ffffff"
   bordercolor="#666666"
   borderopacity="1"
   objecttolerance="10"
   gridtolerance="10"
   guidetolerance="10"
   inkscape:pageopacity="0"
   inkscape:pageshadow="2"
   inkscape:window-width="1920"
   inkscape:window-height="1017"
   id="namedview869"
   showgrid="false"
   inkscape:zoom="2.9125"
   inkscape:cx="99.453867"
   inkscape:cy="131.84586"
   inkscape:window-x="-8"
   inkscape:window-y="-8"
   inkscape:window-maximized="1"
   inkscape:current-layer="g927"
   inkscape:document-rotation="0" />
<style
   type="text/css"
   id="style854">
	.st0{fill:#001E36;}
	.st1{fill:#31A8FF;}
</style>

<rect
   style="fill:#1b1f23;fill-opacity:1;stroke:none;stroke-width:1.50979;stroke-linecap:round"
   id="rect875"
   width="240"
   height="234"
   x="0"
   y="0"
   ry="42.231758" /><g
   style="fill:#efefef;fill-opacity:1"
   id="g861"
   transform="matrix(0.18222949,0,0,0.18222949,26.698501,26.000235)"><path
     fill-rule="evenodd"
     clip-rule="evenodd"
     d="M 8,0 C 3.58,0 0,3.58 0,8 c 0,3.54 2.29,6.53 5.47,7.59 0.4,0.07 0.55,-0.17 0.55,-0.38 0,-0.19 -0.01,-0.82 -0.01,-1.49 C 4,14.09 3.48,13.23 3.32,12.78 3.23,12.55 2.84,11.84 2.5,11.65 2.22,11.5 1.82,11.13 2.49,11.12 3.12,11.11 3.57,11.7 3.72,11.94 4.44,13.15 5.59,12.81 6.05,12.6 6.12,12.08 6.33,11.73 6.56,11.53 4.78,11.33 2.92,10.64 2.92,7.58 2.92,6.71 3.23,5.99 3.74,5.43 3.66,5.23 3.38,4.41 3.82,3.31 c 0,0 0.67,-0.21 2.2,0.82 0.64,-0.18 1.32,-0.27 2,-0.27 0.68,0 1.36,0.09 2,0.27 1.53,-1.04 2.2,-0.82 2.2,-0.82 0.44,1.1 0.16,1.92 0.08,2.12 0.51,0.56 0.82,1.27 0.82,2.15 0,3.07 -1.87,3.75 -3.65,3.95 0.29,0.25 0.54,0.73 0.54,1.48 0,1.07 -0.01,1.93 -0.01,2.2 0,0.21 0.15,0.46 0.55,0.38 C 13.71,14.53 16,11.53 16,8 16,3.58 12.42,0 8,0 Z"
     transform="scale(64)"
     fill="#1b1f23"
     id="path850"
     style="fill:#efefef;fill-opacity:1" /></g><g
   id="g927"
   style="stroke:none;stroke-width:7.68;stroke-linecap:round;stroke-linejoin:round;stroke-miterlimit:4;stroke-dasharray:none;stroke-opacity:1;paint-order:stroke fill markers"
   transform="translate(2.1969226,42.690691)"><text
     xml:space="preserve"
     style="font-style:normal;font-weight:normal;font-size:53.5412px;line-height:1.25;font-family:sans-serif;fill:#efefef;fill-opacity:1;stroke:#1b1f23;stroke-width:10.2799;stroke-opacity:1;"
     x="113.87914"
     y="165.03464"
     id="text891"><tspan
       sodipodi:role="line"
       id="tspan889"
       x="113.87914"
       y="165.03464"
       style="font-style:normal;font-variant:normal;font-weight:normal;font-stretch:normal;font-family:Bahnschrift;-inkscape-font-specification:Bahnschrift;fill:#efefef;fill-opacity:1;stroke-width:10.2799;stroke:#1b1f23;stroke-opacity:1;"><tspan
   style="fill:#71b7ff;fill-opacity:1;stroke:#1b1f23;stroke-opacity:1;"
   id="tspan887">r</tspan>API</tspan></text><text
     xml:space="preserve"
     style="font-style:normal;font-weight:normal;font-size:53.5412px;line-height:1.25;font-family:sans-serif;fill:#efefef;fill-opacity:1;stroke:none;stroke-width:10.2799"
     x="113.87914"
     y="165.03464"
     id="text865"><tspan
       sodipodi:role="line"
       id="tspan863"
       x="113.87914"
       y="165.03464"
       style="font-style:normal;font-variant:normal;font-weight:normal;font-stretch:normal;font-family:Bahnschrift;-inkscape-font-specification:Bahnschrift;fill:#efefef;fill-opacity:1;stroke-width:10.2799"><tspan
   style="fill:#71b7ff;fill-opacity:1"
   id="tspan867">r</tspan>API</tspan></text></g></svg>
