<?xml version="1.0" encoding="UTF-8" standalone="no"?>
<svg
   xmlns:dc="http://purl.org/dc/elements/1.1/"
   xmlns:cc="http://creativecommons.org/ns#"
   xmlns:rdf="http://www.w3.org/1999/02/22-rdf-syntax-ns#"
   xmlns:svg="http://www.w3.org/2000/svg"
   xmlns="http://www.w3.org/2000/svg"
   xmlns:xlink="http://www.w3.org/1999/xlink"
   xmlns:sodipodi="http://sodipodi.sourceforge.net/DTD/sodipodi-0.dtd"
   xmlns:inkscape="http://www.inkscape.org/namespaces/inkscape"
   width="128"
   height="128"
   viewBox="0 0 128 128"
   version="1.1"
   id="svg60"
   sodipodi:docname="icon.svg"
   inkscape:version="1.0.1 (3bc2e813f5, 2020-09-07)">
  <metadata
     id="metadata64">
    <rdf:RDF>
      <cc:Work
         rdf:about="">
        <dc:format>image/svg+xml</dc:format>
        <dc:type
           rdf:resource="http://purl.org/dc/dcmitype/StillImage" />
        <dc:title></dc:title>
      </cc:Work>
    </rdf:RDF>
  </metadata>
  <sodipodi:namedview
     pagecolor="#ffffff"
     bordercolor="#666666"
     borderopacity="1"
     objecttolerance="10"
     gridtolerance="10"
     guidetolerance="10"
     inkscape:pageopacity="0"
     inkscape:pageshadow="2"
     inkscape:window-width="1920"
     inkscape:window-height="1017"
     id="namedview62"
     showgrid="false"
     showguides="false"
     inkscape:zoom="4"
     inkscape:cx="83.165852"
     inkscape:cy="71.718198"
     inkscape:window-x="-8"
     inkscape:window-y="-8"
     inkscape:window-maximized="1"
     inkscape:current-layer="svg60" />
  <defs
     id="defs40">
    <circle
       id="b"
       cx="64"
       cy="64"
       r="56" />
    <filter
       x="-7.1%"
       y="-5.4%"
       width="114.3%"
       height="114.3%"
       filterUnits="objectBoundingBox"
       id="a">
      <feMorphology
         radius="1"
         operator="dilate"
         in="SourceAlpha"
         result="shadowSpreadOuter1"
         id="feMorphology3" />
      <feOffset
         dy="2"
         in="shadowSpreadOuter1"
         result="shadowOffsetOuter1"
         id="feOffset5" />
      <feGaussianBlur
         stdDeviation="2"
         in="shadowOffsetOuter1"
         result="shadowBlurOuter1"
         id="feGaussianBlur7" />
      <feComposite
         in="shadowBlurOuter1"
         in2="SourceAlpha"
         operator="out"
         result="shadowBlurOuter1"
         id="feComposite9" />
      <feColorMatrix
         values="0 0 0 0 0 0 0 0 0 0 0 0 0 0 0 0 0 0 0.240942029 0"
         in="shadowBlurOuter1"
         id="feColorMatrix11" />
    </filter>
    <linearGradient
       x1="50%"
       y1="0%"
       x2="50%"
       y2="100%"
       id="c">
      <stop
         stop-color="#FEFEFE"
         offset="0%"
         id="stop14" />
      <stop
         stop-color="#E0E0E0"
         offset="100%"
         id="stop16" />
    </linearGradient>
    <circle
       id="d"
       cx="64"
       cy="63"
       r="52" />
    <linearGradient
       x1="50%"
       y1="100%"
       x2="50%"
       y2="0%"
       id="g">
      <stop
         stop-color="#492779"
         offset="0%"
         id="stop20"
         style="stop-color:#214e97;stop-opacity:1" />
      <stop
         stop-color="#892793"
         offset="100%"
         id="stop22"
         style="stop-color:#3884ff;stop-opacity:1" />
    </linearGradient>
    <path
       d="M12 64.034c0 23.025 14.885 42.472 35.555 49.367 2.6.456 3.575-1.105 3.575-2.47 0-1.237-.065-5.334-.065-9.692C38 103.644 34.62 98.05 33.58 95.124c-.585-1.496-3.12-6.114-5.33-7.35-1.82-.976-4.42-3.382-.065-3.447 4.095-.065 7.02 3.772 7.995 5.333 4.68 7.87 12.155 5.66 15.145 4.293.455-3.382 1.82-5.66 3.315-6.96-11.57-1.3-23.66-5.788-23.66-25.69 0-5.66 2.015-10.343 5.33-13.985-.52-1.3-2.34-6.634.52-13.79 0 0 4.355-1.365 14.3 5.334 4.16-1.17 8.58-1.756 13-1.756s8.84.586 13 1.756c9.945-6.764 14.3-5.333 14.3-5.333 2.86 7.154 1.04 12.487.52 13.788 3.315 3.642 5.33 8.26 5.33 13.984 0 19.968-12.155 24.39-23.725 25.692 1.885 1.626 3.51 4.748 3.51 9.626 0 6.96-.065 12.553-.065 14.31 0 1.365.975 2.99 3.575 2.47C101.115 106.507 116 86.995 116 64.035 116 35.284 92.73 12 64 12S12 35.285 12 64.034z"
       id="e" />
    <filter
       x="-.5%"
       y="-.5%"
       width="101%"
       height="102%"
       filterUnits="objectBoundingBox"
       id="f">
      <feOffset
         dy="1"
         in="SourceAlpha"
         result="shadowOffsetOuter1"
         id="feOffset26" />
      <feColorMatrix
         values="0 0 0 0 1 0 0 0 0 1 0 0 0 0 1 0 0 0 0.529296875 0"
         in="shadowOffsetOuter1"
         id="feColorMatrix28" />
    </filter>
    <filter
       x="-1%"
       y="-1%"
       width="101.9%"
       height="103%"
       filterUnits="objectBoundingBox"
       id="h">
      <feGaussianBlur
         stdDeviation="1"
         in="SourceAlpha"
         result="shadowBlurInner1"
         id="feGaussianBlur31" />
      <feOffset
         in="shadowBlurInner1"
         result="shadowOffsetInner1"
         id="feOffset33" />
      <feComposite
         in="shadowOffsetInner1"
         in2="SourceAlpha"
         operator="arithmetic"
         k2="-1"
         k3="1"
         result="shadowInnerInner1"
         id="feComposite35" />
      <feColorMatrix
         values="0 0 0 0 0.258823529 0 0 0 0 0.137254902 0 0 0 0 0.431372549 0 0 0 0.703549592 0"
         in="shadowInnerInner1"
         id="feColorMatrix37" />
    </filter>
    <linearGradient
       inkscape:collect="always"
       xlink:href="#g"
       id="linearGradient939"
       gradientUnits="userSpaceOnUse"
       x1="64.000031"
       y1="114.94543"
       x2="64.000031"
       y2="14.213487"
       gradientTransform="matrix(1.2536606,0,0,1.2536606,-16.234279,-16.234279)" />
  </defs>
  <circle
     style="fill:url(#linearGradient939);fill-opacity:1;stroke-width:19.3298;stroke-linecap:round;paint-order:stroke markers fill;stop-color:#000000"
     id="circle937"
     cx="64"
     cy="64"
     r="64" />
  <path
     id="path902"
     style="fill:#ffffff;fill-opacity:1;stroke-width:15.4186;stroke-linecap:round;paint-order:stroke markers fill;stop-color:#000000"
     d="m 64,12.949219 c -28.194412,0 -51.05078,22.856369 -51.050781,51.050781 0,14.097206 5.71481,26.859328 14.953125,36.09766 2.30958,2.30958 4.839321,4.39911 7.555117,6.23415 1.357898,0.91752 2.762309,1.77142 4.208971,2.5574 0.723331,0.39299 1.457225,0.76899 2.201148,1.12748 5.940944,2.87298 5.302149,2.40017 7.246677,-3.01034 3.44686,-9.589802 6.892927,-19.17989 10.338868,-28.770022 0.80314,-2.337656 2.828815,-3.499897 4.820313,-3.496094 1.991498,0.0038 3.948089,1.173652 4.613281,3.496094 3.808706,10.600989 6.765344,18.82588 10.3125,28.693852 1.88517,5.84232 1.734039,5.50988 6.9332,3.08651 0.743923,-0.35849 1.477817,-0.7345 2.201147,-1.12748 1.446662,-0.78598 2.851073,-1.63988 4.208971,-2.5574 2.715795,-1.83504 5.245537,-3.92457 7.555123,-6.23415 C 109.336,90.859345 115.05078,78.097206 115.05078,64 115.05078,35.805588 92.194412,12.949218 64,12.949219 Z M 41.199219,40.169922 c 0.05579,0.0019 0.111319,0.0084 0.166015,0.01953 0.02761,0.0054 0.05497,0.01187 0.08203,0.01953 0.02707,0.008 0.05378,0.0171 0.08008,0.02734 0.0265,0.01 0.05257,0.02103 0.07813,0.0332 0.02528,0.01198 0.05004,0.02501 0.07422,0.03906 0.04823,0.02866 0.09397,0.06133 0.136718,0.09766 0.02096,0.01803 0.04116,0.03693 0.06055,0.05664 l 4.554688,4.552734 c 0.391904,0.392055 0.390151,1.02808 -0.0039,1.417969 C 41.930582,50.89973 39.167969,57.132292 39.167969,64 c 0,6.901208 2.760963,13.098639 7.259765,17.566406 0.394058,0.389889 0.395811,1.025914 0.0039,1.417969 l -4.554688,4.552734 c -0.39053,0.390368 -1.023532,0.390368 -1.414062,0 C 34.438618,81.512836 30.708984,73.182688 30.708984,64 c 0,-9.119325 3.691382,-17.386133 9.642578,-23.400391 l 0.0039,-0.0078 c 0.03213,-0.0459 0.06807,-0.08902 0.107422,-0.128906 0.01394,-0.01343 0.02827,-0.02646 0.04297,-0.03906 0.147204,-0.131439 0.330007,-0.216384 0.525391,-0.24414 0.02787,-0.0038 0.05589,-0.0064 0.08398,-0.0078 0.02795,-0.0018 0.05597,-0.0025 0.08398,-0.002 z m 45.574219,0.002 c 0.02798,-0.0012 0.056,-0.0012 0.08398,0 0.05639,0.0011 0.112575,0.007 0.167969,0.01758 0.02761,0.0054 0.05497,0.01187 0.08203,0.01953 0.02641,0.008 0.05247,0.01716 0.07813,0.02734 0.0265,0.01 0.05257,0.02103 0.07813,0.0332 0.02527,0.01198 0.05004,0.02501 0.07422,0.03906 0.02409,0.01463 0.04755,0.03027 0.07031,0.04687 0.02283,0.01599 0.04499,0.03294 0.06641,0.05078 0.02162,0.01799 0.04247,0.03689 0.0625,0.05664 0.03944,0.04051 0.07538,0.08428 0.107422,0.130859 5.954088,6.014639 9.646485,14.284408 9.646485,23.40625 0,9.182688 -3.729639,17.512836 -9.753907,23.537109 -0.39053,0.390368 -1.023532,0.390368 -1.414062,0 l -4.554688,-4.552734 c -0.391904,-0.392055 -0.390151,-1.02808 0.0039,-1.417969 C 86.071057,77.098638 88.832031,70.901208 88.832031,64 c 0,-6.867707 -2.762608,-13.100241 -7.259765,-17.566406 -0.394058,-0.389889 -0.395811,-1.025914 -0.0039,-1.417969 l 4.554688,-4.552734 c 0.0133,-0.01341 0.02698,-0.02643 0.04102,-0.03906 0.06274,-0.05604 0.132299,-0.10395 0.207032,-0.142578 0.05017,-0.02585 0.102441,-0.04742 0.15625,-0.06445 0.02638,-0.0083 0.0531,-0.01543 0.08008,-0.02148 0.02711,-0.0063 0.05448,-0.01156 0.08203,-0.01562 0.02787,-0.0038 0.05589,-0.0064 0.08398,-0.0078 z m -36.435547,9.136719 c 0.02806,7.73e-4 0.05608,0.0027 0.08398,0.0059 0.02752,0.0034 0.05489,0.008 0.08203,0.01367 0.02761,0.0054 0.05497,0.01187 0.08203,0.01953 0.05369,0.01577 0.105952,0.03603 0.15625,0.06055 0.02528,0.01198 0.05004,0.02501 0.07422,0.03906 0.04823,0.02866 0.09397,0.06133 0.136719,0.09766 0.02162,0.01799 0.04247,0.03689 0.0625,0.05664 0.01341,0.0133 0.02643,0.02698 0.03906,0.04102 l 4.513671,4.511719 c 0.390368,0.39053 0.390368,1.023532 0,1.414062 C 53.4235,57.713219 52.083984,60.686033 52.083984,64 c 0,3.313967 1.339516,6.286781 3.484375,8.431641 0.390368,0.39053 0.390368,1.023532 0,1.414062 l -4.552734,4.552735 c -0.39053,0.390369 -1.023533,0.390369 -1.414063,0 C 45.902421,74.699302 43.625,69.598627 43.625,64 c 0,-5.535666 2.239431,-10.573115 5.865234,-14.261719 l 0.0039,-0.0078 c 0.03213,-0.0459 0.06807,-0.08902 0.107421,-0.128907 0.0133,-0.0134 0.02698,-0.02643 0.04102,-0.03906 0.08435,-0.0749 0.18076,-0.134997 0.285156,-0.177734 0.02562,-0.01085 0.05169,-0.02062 0.07813,-0.0293 0.10725,-0.0342 0.219505,-0.05005 0.332032,-0.04687 z m 27.382812,0 c 0.02741,8.27e-4 0.05478,0.0028 0.08203,0.0059 0.02818,0.0034 0.0562,0.0079 0.08398,0.01367 0.02761,0.0054 0.05497,0.01187 0.08203,0.01953 0.05369,0.01577 0.105952,0.03603 0.15625,0.06055 0.0505,0.02454 0.09885,0.05329 0.144531,0.08594 0.0459,0.03213 0.08902,0.06807 0.128907,0.107421 0.04174,0.04212 0.07965,0.08788 0.113281,0.136719 C 82.137003,53.426791 84.375,58.464778 84.375,64 c 0,5.598627 -2.277423,10.699268 -5.976562,14.398438 -0.39053,0.390369 -1.023533,0.390369 -1.414063,0 l -4.552734,-4.552735 c -0.390368,-0.39053 -0.390368,-1.023532 0,-1.414062 2.144861,-2.14486 3.484375,-5.117674 3.484375,-8.431641 0,-3.313967 -1.339514,-6.286781 -3.484375,-8.431641 -0.390368,-0.39053 -0.390368,-1.023532 0,-1.414062 l 4.552734,-4.552735 c 0.0133,-0.0134 0.02698,-0.02643 0.04102,-0.03906 0.04198,-0.03759 0.08706,-0.07156 0.134765,-0.101562 0.04727,-0.02948 0.09692,-0.05496 0.148438,-0.07617 0.02626,-0.0109 0.05298,-0.02067 0.08008,-0.0293 0.05355,-0.01696 0.10843,-0.02937 0.164062,-0.03711 0.05562,-0.008 0.111804,-0.01123 0.167969,-0.0098 z M 64,56.541016 c 4.107142,0 7.458984,3.351842 7.458984,7.458984 0,4.107142 -3.351842,7.458984 -7.458984,7.458984 -4.107142,10e-7 -7.458984,-3.351842 -7.458984,-7.458984 0,-4.107142 3.351842,-7.458985 7.458984,-7.458984 z"
     sodipodi:nodetypes="ssssscccscccsssssccccccccccsccccscccccccccccccccsccsccccsccccccccccccccccccccsccccsccccccccccsccccsccccscccccccccsssssssss" />
</svg>
